<?xml version="1.0" encoding="UTF-8"?>
<svg id="Layer_1" data-name="Layer 1" xmlns="http://www.w3.org/2000/svg" viewBox="0 0 90.64 67.72">
  <defs>
    <style>
      .cls-1 {
        stroke-width: 2px;
      }

      .cls-1, .cls-2 {
        fill: #fff;
        stroke: #231f20;
        stroke-miterlimit: 10;
      }

      .cls-3 {
        fill: #231f20;
        stroke-width: 0px;
      }
    </style>
  </defs>
  <rect class="cls-2" x="3.34" y="2.36" width="83.97" height="63.32"/>
  <rect class="cls-1" x="7.18" y="5.77" width="76.4" height="56.5"/>
  <g>
    <path class="cls-3" d="M13.76,51.83c0-.5-.17-.75-.51-.75-.06,0-.13,0-.21.02-.12.02-.21.03-.27.03-.21,0-.31-.11-.31-.32,0-.23.15-.35.45-.35.03,0,.08,0,.13,0l.53.07c.2.03.41.04.64.04.19,0,.37-.01.56-.03l.65-.07c.13-.01.29-.02.5-.02.61,0,1.11.09,1.52.26.53.23.95.62,1.26,1.18s.47,1.21.47,1.95c0,.65-.12,1.24-.37,1.76-.25.52-.58.91-1.01,1.16-.51.3-1.13.45-1.86.45-.15,0-.3,0-.45-.02l-.69-.06c-.23-.02-.48-.03-.73-.03-.22,0-.4.01-.54.03l-.48.07s-.04,0-.07,0h-.08c-.29,0-.43-.12-.43-.35,0-.09.03-.17.09-.24.06-.06.13-.09.22-.09.07,0,.16,0,.27.03.05.01.12.02.21.02.34,0,.51-.25.51-.75v-4.01ZM14.6,51.73v4.21c0,.31.15.49.45.56.1.03.38.04.84.04.8,0,1.38-.22,1.74-.65.43-.52.65-1.2.65-2.05,0-.66-.13-1.23-.4-1.69-.26-.46-.62-.76-1.08-.89-.29-.09-.65-.13-1.06-.13-.53,0-.85.03-.96.09-.12.06-.18.23-.18.51Z"/>
    <path class="cls-3" d="M24.47,54.23c0,.25-.02.41-.05.46s-.13.08-.29.08h-3.18c-.09,0-.14.01-.17.04-.03.02-.04.06-.04.11,0,.5.15.92.45,1.25.3.33.67.5,1.12.5.29,0,.56-.08.81-.24.24-.16.4-.36.47-.61l.09-.29c.05-.16.16-.24.33-.24.25,0,.37.13.37.38,0,.43-.22.82-.66,1.16s-.94.5-1.5.5c-.7,0-1.26-.23-1.67-.71-.41-.47-.62-1.1-.62-1.9s.22-1.47.66-1.98c.44-.51,1.01-.76,1.72-.76.63,0,1.14.21,1.55.63s.61.95.61,1.6ZM20.84,53.97c0,.09.07.14.22.14h2.39c.14,0,.21-.05.21-.14,0-.35-.13-.66-.4-.92-.27-.26-.58-.39-.94-.39s-.71.13-1.02.4-.46.57-.46.9Z"/>
    <path class="cls-3" d="M26.72,52.46v.27c.35-.49.81-.73,1.39-.73.47,0,.84.13,1.13.4s.44.6.44,1.02c0,.29-.07.53-.22.71-.15.18-.34.27-.58.27-.15,0-.28-.05-.39-.14-.11-.09-.16-.21-.16-.34,0-.11.04-.2.12-.29.08-.08.17-.12.28-.12.02,0,.06.01.13.03.04-.08.06-.15.06-.22,0-.19-.08-.36-.25-.49-.17-.13-.38-.2-.64-.2-.52,0-.87.23-1.04.7-.11.29-.16.72-.16,1.3v.66c0,.45,0,.7.01.75.03.38.14.57.31.57.09,0,.18-.01.27-.03.07-.02.14-.03.19-.03.21,0,.32.11.32.32,0,.23-.14.34-.41.34h-.04c-.1,0-.25-.01-.45-.04-.2-.02-.35-.03-.45-.03-.27,0-.48,0-.63.02l-.56.05c-.27,0-.41-.12-.41-.35,0-.21.13-.31.38-.31.07,0,.12,0,.15.01l.15.03c.07.01.11.02.14.02.17,0,.26-.15.27-.46v-.51l-.03-2.27c-.02-.39-.12-.59-.3-.59-.05,0-.13.01-.22.03s-.17.03-.22.03c-.22,0-.33-.11-.33-.32,0-.23.14-.35.43-.35.07,0,.17,0,.3.02.13.02.23.02.3.02.05,0,.14,0,.26-.02.05-.02.12-.02.19-.02.17,0,.26.1.26.29Z"/>
    <path class="cls-3" d="M34.66,54.23c0,.25-.02.41-.05.46s-.13.08-.29.08h-3.18c-.09,0-.14.01-.17.04-.03.02-.04.06-.04.11,0,.5.15.92.45,1.25.3.33.67.5,1.12.5.29,0,.56-.08.81-.24.24-.16.4-.36.47-.61l.09-.29c.05-.16.16-.24.33-.24.25,0,.37.13.37.38,0,.43-.22.82-.66,1.16s-.94.5-1.5.5c-.7,0-1.26-.23-1.67-.71-.41-.47-.62-1.1-.62-1.9s.22-1.47.66-1.98c.44-.51,1.01-.76,1.72-.76.63,0,1.14.21,1.55.63s.61.95.61,1.6ZM31.03,53.97c0,.09.07.14.22.14h2.39c.14,0,.21-.05.21-.14,0-.35-.13-.66-.4-.92-.27-.26-.58-.39-.94-.39s-.71.13-1.02.4-.46.57-.46.9Z"/>
    <path class="cls-3" d="M37.51,52c.45,0,.82.12,1.12.35v-.04c0-.25.11-.37.32-.37s.33.11.33.32c0,.04,0,.14-.02.3-.02.13-.03.27-.03.4,0,.08,0,.2.02.35s.02.27.02.35c0,.25-.11.38-.32.38s-.32-.11-.33-.32v-.33c0-.2-.12-.37-.34-.52-.22-.14-.49-.21-.79-.21s-.56.08-.77.23-.31.35-.31.58c0,.43.29.68.88.76l.58.08c1.13.15,1.7.62,1.7,1.41,0,.48-.18.87-.55,1.17-.37.3-.84.44-1.44.44-.55,0-1.03-.16-1.44-.47v.19c0,.24-.11.36-.34.36-.25,0-.37-.14-.37-.41,0,.05.02-.13.06-.52.01-.09.02-.19.02-.28,0-.16-.01-.31-.04-.45-.03-.14-.04-.25-.04-.33,0-.23.11-.35.32-.35.14,0,.23.03.27.1.04.07.06.24.06.53,0,.29.16.52.45.7.29.18.67.27,1.12.27.33,0,.6-.08.81-.25.21-.17.32-.38.32-.63,0-.45-.36-.72-1.08-.79-.69-.07-1.21-.21-1.57-.4-.36-.2-.54-.54-.54-1.04,0-.47.18-.84.53-1.13.35-.29.81-.44,1.38-.44Z"/>
    <path class="cls-3" d="M41.94,54.27v1.3c0,.33,0,.53.01.59.03.3.12.45.27.45.03,0,.12-.02.25-.05.03-.01.08-.02.15-.02.25,0,.38.11.38.33,0,.09-.04.17-.13.24-.08.07-.19.1-.32.1-.11,0-.27-.02-.49-.04-.22-.03-.38-.04-.49-.04-.17,0-.37.01-.58.04-.26.03-.44.05-.52.05-.27,0-.4-.11-.4-.34s.11-.33.34-.33c.05,0,.13,0,.24.03.1.02.18.03.24.03.16,0,.26-.21.29-.64v-2.56c-.03-.42-.13-.63-.3-.63-.05,0-.13.01-.23.03-.1.02-.17.04-.22.04-.24,0-.36-.11-.36-.32,0-.23.15-.34.44-.34.13,0,.22,0,.27.01.21.03.35.04.41.04.05,0,.13,0,.25-.02.11-.02.19-.03.24-.03.19,0,.29.13.29.39,0,.03,0,.07,0,.12s0,.09,0,.12c0,.05-.01.26-.02.62,0,.27,0,.55,0,.84ZM41.42,51.65c-.15,0-.29-.06-.4-.17-.11-.11-.17-.24-.17-.4s.05-.28.17-.39c.11-.11.24-.16.4-.16s.28.05.39.16c.11.11.17.24.17.39s-.05.29-.17.4c-.11.11-.24.17-.39.17Z"/>
    <path class="cls-3" d="M47.72,57.3c-.55,0-.88-.24-1.01-.71-.34.5-.87.75-1.6.75-.54,0-.97-.13-1.29-.4-.32-.27-.49-.62-.49-1.07,0-.55.24-.96.71-1.22.18-.1.34-.17.47-.19.13-.03.39-.07.78-.12.56-.06.93-.14,1.1-.25.17-.11.25-.3.25-.59s-.09-.49-.28-.65c-.19-.16-.46-.23-.8-.23-.3,0-.58.08-.84.25-.1.07-.15.14-.15.21,0,.03.03.06.09.1.09.07.14.18.14.34,0,.13-.05.24-.15.33-.1.09-.22.13-.37.13-.17,0-.32-.06-.43-.18-.12-.12-.18-.27-.18-.44,0-.37.19-.69.56-.96s.82-.4,1.34-.4c1.21,0,1.82.58,1.82,1.75v2.02c0,.32,0,.51.02.57.04.23.15.35.34.35.23,0,.35-.21.35-.64v-.49c0-.21.1-.32.31-.32.22,0,.32.16.32.48v.62c-.01.64-.35.96-1.02.96ZM46.61,55.31v-.71c-.15.13-.3.23-.46.28-.16.05-.45.1-.87.14-.76.07-1.14.35-1.14.84,0,.25.09.45.27.6.18.15.43.22.75.22.45,0,.8-.12,1.06-.36.26-.24.39-.58.4-1Z"/>
    <path class="cls-3" d="M54.24,50.28c.65,0,1.19.21,1.6.63v-.14c0-.26.1-.39.31-.39.23,0,.34.14.34.43v.06s0,.11-.03.3-.03.41-.03.67c0,.03,0,.14.02.32l.03.4s0,.08,0,.14c0,.32-.12.48-.37.48-.26,0-.39-.13-.39-.4v-.05l.02-.27c0-.09,0-.17,0-.22,0-.4-.13-.71-.4-.94-.27-.23-.64-.34-1.12-.34-.43,0-.78.11-1.03.32-.26.21-.39.5-.39.86,0,.42.19.73.57.93.21.11.59.2,1.12.29.79.13,1.34.3,1.63.52.44.33.66.79.66,1.39s-.22,1.14-.67,1.53c-.45.39-1.03.59-1.74.59-.76,0-1.39-.24-1.89-.72v.15c.03.11.04.17.04.21,0,.24-.12.37-.37.37-.27,0-.4-.14-.4-.42,0-.03,0-.06.03-.08l.05-.52c.02-.26.03-.43.03-.5,0-.13-.02-.33-.06-.6s-.05-.47-.05-.6c0-.3.13-.45.38-.45s.39.15.39.45v.41c0,.5.16.9.48,1.19.32.29.75.44,1.3.44.5,0,.91-.12,1.21-.36.3-.24.45-.57.45-.98,0-.63-.4-1.02-1.2-1.16l-.57-.1c-.57-.1-1.01-.22-1.32-.35-.29-.13-.52-.33-.69-.6s-.25-.57-.25-.92c0-.59.21-1.06.64-1.43.43-.37.98-.55,1.66-.55Z"/>
    <path class="cls-3" d="M60.66,53.87c0-.27.17-.42.5-.46-.03-.23-.15-.42-.33-.55s-.44-.2-.73-.2c-.46,0-.83.18-1.11.55-.28.37-.42.85-.42,1.46s.13,1.12.4,1.48c.26.36.63.53,1.09.53.29,0,.55-.08.77-.25.22-.17.36-.4.44-.69.07-.23.11-.37.12-.4.07-.13.18-.2.32-.2.11,0,.21.04.28.11.07.07.11.17.11.28,0,.17-.05.37-.16.6-.11.23-.23.43-.38.58-.39.42-.9.63-1.53.63-.68,0-1.23-.24-1.65-.72-.42-.48-.62-1.11-.62-1.89,0-.83.21-1.49.65-1.98.43-.5,1-.75,1.71-.75.53,0,.98.15,1.33.44.35.29.53.66.53,1.1,0,.25-.07.45-.21.61s-.31.24-.52.24c-.17,0-.3-.05-.42-.15-.11-.1-.17-.22-.17-.37Z"/>
    <path class="cls-3" d="M65.15,57.34c-.7,0-1.26-.24-1.68-.73-.42-.48-.63-1.13-.63-1.94s.21-1.46.64-1.94.99-.73,1.71-.73,1.3.24,1.72.71c.42.47.63,1.12.63,1.93s-.22,1.47-.65,1.96c-.43.49-1.01.74-1.73.74ZM65.2,52.66c-.47,0-.83.16-1.1.49-.27.33-.41.79-.44,1.39v.13c0,.63.13,1.12.4,1.48.26.36.63.53,1.1.53s.87-.18,1.15-.53c.28-.36.41-.85.41-1.48,0-1.33-.51-2-1.52-2Z"/>
    <path class="cls-3" d="M71.09,55.79v-.64c0-.27.13-.41.36-.41s.35.15.35.46c0,.73-.09,1.23-.28,1.52-.25.39-.67.58-1.24.58-.53,0-.91-.17-1.13-.51-.17-.25-.25-.67-.25-1.26v-2.4c0-.14-.06-.21-.19-.21h-.33c-.11,0-.2-.04-.27-.1-.07-.07-.11-.15-.11-.25,0-.09.04-.18.1-.25s.15-.11.23-.11h.39c.11,0,.17-.06.17-.19v-1.03c0-.25.13-.38.39-.38.24,0,.36.13.36.38v1.07c0,.1.06.15.18.15h1.09c.25,0,.38.12.38.35,0,.25-.14.37-.41.37h-1.1c-.09,0-.14.07-.14.21v2.46c0,.7.23,1.05.7,1.05s.72-.28.74-.85Z"/>
    <path class="cls-3" d="M75.09,55.79v-.64c0-.27.13-.41.36-.41s.35.15.35.46c0,.73-.09,1.23-.28,1.52-.25.39-.67.58-1.24.58-.53,0-.91-.17-1.13-.51-.17-.25-.25-.67-.25-1.26v-2.4c0-.14-.06-.21-.19-.21h-.33c-.11,0-.2-.04-.27-.1-.07-.07-.11-.15-.11-.25,0-.09.04-.18.1-.25s.15-.11.23-.11h.39c.11,0,.17-.06.17-.19v-1.03c0-.25.13-.38.39-.38.24,0,.36.13.36.38v1.07c0,.1.06.15.18.15h1.09c.25,0,.38.12.38.35,0,.25-.14.37-.41.37h-1.1c-.09,0-.14.07-.14.21v2.46c0,.7.23,1.05.7,1.05s.72-.28.74-.85Z"/>
  </g>
  <path class="cls-3" d="M67.66,16.79c1.03-.27,1.99-.54,2.97-.93l.47-.22c1.12-.54,2.3-1.55,2.3-2.95s-1.37-2.56-2.74-2.56c-2.88,0-5.36,3.06-5.36,5.83,0,.38.03.75.08,1.12-.77.07-1.77.07-2.72-.22-1.11-.35-1.34-.46-1.72-.67-.34-.19-.74-.52-.55-.32.19.19.95.81,2.04,1.13,1.09.32,2.11.35,2.98.26.89,5.93,7.49,10.92,7.49,17.03,0,4.36-3.13,7.09-7.2,7.85,1.51-7.95-4.82-20.77-12.81-20.77-2.81,0-4.64,2.7-4.64,5.33,0,7.77,9.21,16.2,16.81,15.98-.58,1.73-2.21,2.51-4.03,2.95-.92.22-1.89.18-2.64.13,0,0-3.23-.26-7.38-2.87-2.34-1.47-4.45-3.46-6.69-6.6,1.28-1.91,2.02-4.35,2.02-7.03,0-1.33-.25-2.59-.72-3.85.4-.76.65-1.69.65-2.77,0-.19-.04-.47-.09-.81.06.16.1.41.09.81.07-3.87-1.5-5.14-1.92-5.46-1.01-.76-2.04-1.03-3.25-.7-.57.16-1.06.42-1.51.97-3.9-3.29-8.52-5.39-11.07-5.39-2.95,0-5.98,1.73-5.98,4.68,0,5.18,8.78,11.7,16.77,11.7.08,0,.16,0,.23,0,1.01,2.56,2.47,5.05,4.24,7.54-1.32,1.68-3.23,2.73-5.56,2.73-3.17,0-6.18-1.35-8.96-2.91.36-.98.5-2.07.39-2.62-.21-1.05-.61-1.49-1.39-2.09,1.33,1.16,1.35,2.35,1.3,2.92-.02.27-.13,1-.4,1.72-3.8-2.14-7.17-4.66-9.94-4.66-1.66,0-3.4,1.17-3.17,2.81.19,1.37,1.11,2.04,1.29,2.25h0c.66.59,1.78,1.08,2.54,1.45,1.01.48,2.65,1.1,4.42,1.12.85,0,2.18-.19,3.26-.82,2.74,1.39,5.75,2.62,9.08,2.62,3.16,0,5.8-1.54,7.53-3.99.16.22.32.45.49.67,1.1,1.47,3.83,4.75,6.93,6.52,1.98,1.13,4.14,2.08,6.79,2.39.64,0,1.71.05,2.56-.05,2.29-.25,3.89-1.33,4.61-3.35,5.83-1.08,8.89-5,8.89-10.83,0-6.48-5.09-10.91-6.79-15.04ZM69.84,10.92c1.44,0,2.56.94,2.56,2.38s-.97,1.76-1.3,2.05c-.36.26-2.01.88-3.5,1.29-.3-.77-.5-1.54-.5-2.3,0-1.69.9-3.42,2.74-3.42ZM25.28,38.45c-1.35.23-3.31-.29-5.04-1.03-.54-.23-2.24-.96-3.02-1.91-.31-.45-.28-.65-.28-.94,0-.54.75-.57,1.29-.57,2.68,0,5.71,2,9.19,3.77-.62.36-1.27.53-2.14.68ZM40.45,17.27c.66-.48,1.14-.54,1.89-.51.97.07,1.8.78,2.4,1.58,0,0,.6.67.9,1.89.08.28.18,1.18.2,1.29.05.68.06,1.39-.05,2-.09.53-.11,1.04-.32,1.48-1.11-2.72-3.16-5.2-5.52-7.26.14-.16.3-.32.5-.47ZM40.94,19.52c1.87,1.87,3.35,3.74,4.18,6.05-1.09,1.46-3.36,2.14-5.49,2.22-.56-1.47-.89-2.79-1.01-3.91-.16-1.59.05-3.24.52-4.52.13-.35.26-.73.46-1.1.46.4.91.83,1.34,1.26ZM39.24,27.8c-7.16,0-14.97-5.51-14.97-10.58,0-2.3,2.16-3.89,4.46-3.89,3.23,0,7.21,1.86,10.49,4.62-.07.11-.13.23-.2.37-.89,1.79-.96,4.75-.5,6.79.2.91.48,1.81.8,2.7-.03,0-.05,0-.08,0ZM43.1,34.48c-1.44-2.24-2.51-4.28-3.24-6.09,1.94-.1,4.15-.78,5.4-2.46.36,1.12.54,2.38.54,3.78,0,2.31-.67,4.43-1.85,6.03-.28-.4-.56-.82-.84-1.26ZM65.2,42.16c-7.23.47-16.59-7.74-16.59-15.48,0-2.2,1.69-4.28,4.03-4.28,6.98,0,14,13.1,12.56,19.76Z"/>
</svg>