<?xml version="1.0" encoding="UTF-8"?>
<svg id="Layer_1" data-name="Layer 1" xmlns="http://www.w3.org/2000/svg" viewBox="0 0 65.09 65.11">
  <defs>
    <style>
      .cls-1 {
        fill: none;
      }

      .cls-1, .cls-2 {
        stroke-width: 0px;
      }
    </style>
  </defs>
  <path class="cls-1" d="M58.4,19.8c.32-.29,1.3-.65,1.3-2.05s-1.12-2.38-2.56-2.38c-1.84,0-2.74,1.73-2.74,3.42,0,.76.19,1.53.5,2.3,1.49-.42,3.14-1.03,3.5-1.29Z"/>
  <path class="cls-1" d="M4.24,39.02c0,.29-.03.49.28.94.77.95,2.48,1.68,3.02,1.91,1.73.74,3.69,1.26,5.04,1.03.87-.15,1.52-.32,2.14-.68-3.48-1.78-6.51-3.77-9.19-3.77-.54,0-1.29.03-1.29.57Z"/>
  <path class="cls-1" d="M33.56,27.07c0-.4-.03-.65-.09-.81.06.33.09.62.09.81Z"/>
  <path class="cls-1" d="M32.77,29.45c.22-.43.23-.94.32-1.48.11-.61.1-1.32.05-2-.01-.11-.12-1.01-.2-1.29-.3-1.23-.9-1.89-.9-1.89-.6-.8-1.43-1.51-2.4-1.58-.75-.04-1.23.03-1.89.51-.2.15-.36.3-.5.47,2.35,2.05,4.41,4.54,5.52,7.26Z"/>
  <path class="cls-1" d="M26.33,22.77c.07-.13.13-.25.2-.37-3.29-2.75-7.26-4.62-10.49-4.62-2.3,0-4.46,1.58-4.46,3.89,0,5.08,7.81,10.58,14.97,10.58.03,0,.05,0,.08,0-.32-.89-.6-1.79-.8-2.7-.45-2.03-.38-5,.5-6.79Z"/>
  <path class="cls-1" d="M39.94,26.86c-2.34,0-4.03,2.09-4.03,4.28,0,7.74,9.36,15.95,16.59,15.48,1.44-6.66-5.58-19.76-12.56-19.76Z"/>
  <path class="cls-1" d="M32.55,30.39c-1.25,1.68-3.46,2.36-5.4,2.46.74,1.81,1.8,3.84,3.24,6.09.28.44.56.85.84,1.26,1.18-1.6,1.85-3.72,1.85-6.03,0-1.4-.18-2.66-.54-3.78Z"/>
  <path class="cls-1" d="M25.91,28.34c.11,1.12.45,2.43,1.01,3.91,2.13-.07,4.4-.76,5.49-2.22-.83-2.3-2.3-4.18-4.18-6.05-.43-.44-.88-.86-1.34-1.26-.2.37-.33.75-.46,1.1-.47,1.28-.68,2.93-.52,4.52Z"/>
  <path class="cls-2" d="M54.96,21.25c1.03-.27,1.99-.54,2.97-.93l.47-.22c1.12-.54,2.3-1.55,2.3-2.95s-1.37-2.56-2.74-2.56c-2.88,0-5.36,3.06-5.36,5.83,0,.38.03.75.08,1.12-.77.07-1.77.07-2.72-.22-1.11-.35-1.34-.46-1.72-.67-.34-.19-.74-.52-.55-.32.19.19.95.81,2.04,1.13,1.09.32,2.11.35,2.98.26.89,5.93,7.49,10.92,7.49,17.03,0,4.36-3.13,7.09-7.2,7.85,1.51-7.95-4.82-20.77-12.81-20.77-2.81,0-4.64,2.7-4.64,5.33,0,7.77,9.21,16.2,16.81,15.98-.58,1.73-2.21,2.51-4.03,2.95-.92.22-1.89.18-2.64.13,0,0-3.23-.26-7.38-2.87-2.34-1.47-4.45-3.46-6.69-6.6,1.28-1.91,2.02-4.35,2.02-7.03,0-1.33-.25-2.59-.72-3.85.4-.76.65-1.69.65-2.77,0-.19-.04-.47-.09-.81.06.16.1.41.09.81.07-3.87-1.5-5.14-1.92-5.46-1.01-.76-2.04-1.03-3.25-.7-.57.16-1.06.42-1.51.97-3.9-3.29-8.52-5.39-11.07-5.39-2.95,0-5.98,1.73-5.98,4.68,0,5.18,8.78,11.7,16.77,11.7.08,0,.16,0,.23,0,1.01,2.56,2.47,5.05,4.24,7.54-1.32,1.68-3.23,2.73-5.56,2.73-3.17,0-6.18-1.35-8.96-2.91.36-.98.5-2.07.39-2.62-.21-1.05-.61-1.49-1.39-2.09,1.33,1.16,1.35,2.35,1.3,2.92-.02.27-.13,1-.4,1.72-3.8-2.14-7.17-4.66-9.94-4.66-1.66,0-3.4,1.17-3.17,2.81.19,1.37,1.11,2.04,1.29,2.25h0c.66.59,1.78,1.08,2.54,1.45,1.01.48,2.65,1.1,4.42,1.12.85,0,2.18-.19,3.26-.82,2.74,1.39,5.75,2.62,9.08,2.62,3.16,0,5.8-1.54,7.53-3.99.16.22.32.45.49.67,1.1,1.47,3.83,4.75,6.93,6.52,1.98,1.13,4.14,2.08,6.79,2.39.64,0,1.71.05,2.56-.05,2.29-.25,3.89-1.33,4.61-3.35,5.83-1.08,8.89-5,8.89-10.83,0-6.48-5.09-10.91-6.79-15.04ZM57.14,15.38c1.44,0,2.56.94,2.56,2.38s-.97,1.76-1.3,2.05c-.36.26-2.01.88-3.5,1.29-.3-.77-.5-1.54-.5-2.3,0-1.69.9-3.42,2.74-3.42ZM12.57,42.9c-1.35.23-3.31-.29-5.04-1.03-.54-.23-2.24-.96-3.02-1.91-.31-.45-.28-.65-.28-.94,0-.54.75-.57,1.29-.57,2.68,0,5.71,2,9.19,3.77-.62.36-1.27.53-2.14.68ZM27.75,21.73c.66-.48,1.14-.54,1.89-.51.97.07,1.8.78,2.4,1.58,0,0,.6.67.9,1.89.08.28.18,1.18.2,1.29.05.68.06,1.39-.05,2-.09.53-.11,1.04-.32,1.48-1.11-2.72-3.16-5.2-5.52-7.26.14-.16.3-.32.5-.47ZM28.23,23.98c1.87,1.87,3.35,3.74,4.18,6.05-1.09,1.46-3.36,2.14-5.49,2.22-.56-1.47-.89-2.79-1.01-3.91-.16-1.59.05-3.24.52-4.52.13-.35.26-.73.46-1.1.46.4.91.83,1.34,1.26ZM26.54,32.26c-7.16,0-14.97-5.51-14.97-10.58,0-2.3,2.16-3.89,4.46-3.89,3.23,0,7.21,1.86,10.49,4.62-.07.11-.13.23-.2.37-.89,1.79-.96,4.75-.5,6.79.2.91.48,1.81.8,2.7-.03,0-.05,0-.08,0ZM30.4,38.94c-1.44-2.24-2.51-4.28-3.24-6.09,1.94-.1,4.15-.78,5.4-2.46.36,1.12.54,2.38.54,3.78,0,2.31-.67,4.43-1.85,6.03-.28-.4-.56-.82-.84-1.26ZM52.5,46.62c-7.23.47-16.59-7.74-16.59-15.48,0-2.2,1.69-4.28,4.03-4.28,6.98,0,14,13.1,12.56,19.76Z"/>
</svg>